<?xml version="1.0" encoding="utf-8"?>
<!-- Generator: Adobe Illustrator 15.0.0, SVG Export Plug-In . SVG Version: 6.00 Build 0)  -->
<!DOCTYPE svg PUBLIC "-//W3C//DTD SVG 1.1//EN" "http://www.w3.org/Graphics/SVG/1.1/DTD/svg11.dtd">
<svg version="1.1" id="Layer_1" xmlns="http://www.w3.org/2000/svg" xmlns:xlink="http://www.w3.org/1999/xlink" x="0px" y="0px"
	 width="511px" height="180px" viewBox="0 0 511 180" enable-background="new 0 0 511 180" xml:space="preserve">
<g>
	<path fill="#EC6900" d="M270.252,109.165c-10.96,62.067-114.198,37.908-97.542-22.216c0,0.002,13.91-61.082,13.91-61.082
		l30.788,7.011l-13.91,61.085c-2.783,12.216,3.639,21.611,14.001,23.971c10.213,2.325,19.149-3.413,21.966-15.779l13.911-61.084
		l30.786,7.011L270.252,109.165z"/>
	<path fill="#EC6900" d="M393.47,52.662L375.4,74.75c-16.533-23.144-50.631-16.53-50.61,13.799
		c0.538,29.991,32.729,36.048,50.806,15.126l18.349,19.678c-32.983,39.698-102.974,19.24-101.486-34.281
		C289.841,37.424,360.504,15.483,393.47,52.662"/>
	<path fill="#EC6900" d="M505.557,51.878l-18.068,22.088c-16.535-23.142-50.63-16.532-50.61,13.798
		c0.539,29.992,32.728,36.048,50.806,15.126l18.348,19.679c-32.984,39.698-102.973,19.24-101.485-34.281
		C401.928,36.639,472.591,14.702,505.557,51.878"/>
</g>
<g>
	<defs>
		<path id="SVGID_1_" d="M61.028,22.251c-4.08,6.634-5.852,15.41-4.48,23.416c8.052-11.24,21.929-15.321,35.226-14.198
			c-6.506-6.548-15.197-9.908-23.932-9.909C65.561,21.56,63.277,21.789,61.028,22.251"/>
	</defs>
	<clipPath id="SVGID_2_">
		<use xlink:href="#SVGID_1_"  overflow="visible"/>
	</clipPath>
	
		<linearGradient id="SVGID_3_" gradientUnits="userSpaceOnUse" x1="-43" y1="386" x2="-42" y2="386" gradientTransform="matrix(35.6833 0 0 -35.6833 1590.4846 13807.3369)">
		<stop  offset="0" style="stop-color:#ED6E00"/>
		<stop  offset="1" style="stop-color:#EB8900"/>
	</linearGradient>
	<rect x="55.176" y="21.56" clip-path="url(#SVGID_2_)" fill="url(#SVGID_3_)" width="36.598" height="24.107"/>
</g>
<g>
	<defs>
		<path id="SVGID_4_" d="M62.449,20.074c2.715-0.414,5.497-0.516,8.3-0.289c10.786,0.678,19.95,6.603,26.653,14.789
			c-0.736-11.811-7.607-22.005-17.443-27.428C72.82,9.48,66.703,14.07,62.449,20.074"/>
	</defs>
	<clipPath id="SVGID_5_">
		<use xlink:href="#SVGID_4_"  overflow="visible"/>
	</clipPath>
	
		<linearGradient id="SVGID_6_" gradientUnits="userSpaceOnUse" x1="-43" y1="386" x2="-42" y2="386" gradientTransform="matrix(34.9525 0 0 -34.9525 1565.4031 13512.5391)">
		<stop  offset="0" style="stop-color:#ED6E00"/>
		<stop  offset="1" style="stop-color:#EB8900"/>
	</linearGradient>
	<rect x="62.449" y="7.146" clip-path="url(#SVGID_5_)" fill="url(#SVGID_6_)" width="34.953" height="27.428"/>
</g>
<g>
	<defs>
		<path id="SVGID_7_" d="M100.008,73.453c8.11-2.249,15.024-7.373,19.575-14.207c-2.146,0.401-4.342,0.607-6.565,0.607
			c-11.51,0.207-21.662-5.74-28.981-14.313C84.286,57.235,90.588,67.594,100.008,73.453"/>
	</defs>
	<clipPath id="SVGID_8_">
		<use xlink:href="#SVGID_7_"  overflow="visible"/>
	</clipPath>
	
		<linearGradient id="SVGID_9_" gradientUnits="userSpaceOnUse" x1="-43.0005" y1="385.999" x2="-42.0005" y2="385.999" gradientTransform="matrix(35.5462 0 0 -35.5462 1612.5339 13780.3496)">
		<stop  offset="0" style="stop-color:#ED6E00"/>
		<stop  offset="1" style="stop-color:#EB8900"/>
	</linearGradient>
	<rect x="84.037" y="45.54" clip-path="url(#SVGID_8_)" fill="url(#SVGID_9_)" width="35.546" height="27.913"/>
</g>
<g>
	<defs>
		<path id="SVGID_10_" d="M89.723,48.675c8.501,8.114,20.372,10.954,31.226,8.34c3.914-6.786,5.408-15.73,3.767-23.674
			C117.083,44.843,103.148,50.037,89.723,48.675"/>
	</defs>
	<clipPath id="SVGID_11_">
		<use xlink:href="#SVGID_10_"  overflow="visible"/>
	</clipPath>
	
		<linearGradient id="SVGID_12_" gradientUnits="userSpaceOnUse" x1="-42.9995" y1="385.9766" x2="-41.9995" y2="385.9766" gradientTransform="matrix(35.6511 0 0 -35.6511 1622.7153 13806.9736)">
		<stop  offset="0" style="stop-color:#ED6E00"/>
		<stop  offset="1" style="stop-color:#EB8900"/>
	</linearGradient>
	<rect x="89.723" y="33.341" clip-path="url(#SVGID_11_)" fill="url(#SVGID_12_)" width="36.634" height="26.288"/>
</g>
<g>
	<defs>
		<path id="SVGID_13_" d="M57.061,48.214c2.071,8.593,7.344,15.938,14.488,20.7C68.785,55.336,75.1,42.075,85.337,33.303
			c-0.11-0.001-0.221-0.002-0.332-0.002C73.538,33.301,63.178,39.16,57.061,48.214"/>
	</defs>
	<clipPath id="SVGID_14_">
		<use xlink:href="#SVGID_13_"  overflow="visible"/>
	</clipPath>
	
		<linearGradient id="SVGID_15_" gradientUnits="userSpaceOnUse" x1="-42.999" y1="386" x2="-41.9995" y2="386" gradientTransform="matrix(28.2762 0 0 -28.2762 1272.9351 10965.6973)">
		<stop  offset="0" style="stop-color:#ED6E00"/>
		<stop  offset="1" style="stop-color:#EB8900"/>
	</linearGradient>
	<rect x="57.061" y="33.301" clip-path="url(#SVGID_14_)" fill="url(#SVGID_15_)" width="28.276" height="35.613"/>
</g>
<g>
	<defs>
		<path id="SVGID_16_" d="M109.631,18.53c0.023,9.463-3.629,18.379-10.283,25.104l-0.011-0.011v0.012l-3.269,3.269
			c11.767-0.235,22.192-6.598,28.045-16.11c-2.381-8.584-7.982-15.828-15.423-20.349C109.303,13.066,109.624,15.773,109.631,18.53"
			/>
	</defs>
	<clipPath id="SVGID_17_">
		<use xlink:href="#SVGID_16_"  overflow="visible"/>
	</clipPath>
	
		<linearGradient id="SVGID_18_" gradientUnits="userSpaceOnUse" x1="-43" y1="386" x2="-42" y2="386" gradientTransform="matrix(28.0457 0 0 -28.0457 1302.0402 10854.335)">
		<stop  offset="0" style="stop-color:#ED6E00"/>
		<stop  offset="1" style="stop-color:#EB8900"/>
	</linearGradient>
	<rect x="96.068" y="10.445" clip-path="url(#SVGID_17_)" fill="url(#SVGID_18_)" width="28.045" height="36.459"/>
</g>
<g>
	<defs>
		<path id="SVGID_19_" d="M73.772,70.276c6.792,3.923,15.748,5.422,23.702,3.777c-2.091-1.455-4.04-3.143-5.813-5.054
			c-7.737-8-10.248-18.955-9.529-29.797C74.057,47.672,71.217,59.47,73.772,70.276"/>
	</defs>
	<clipPath id="SVGID_20_">
		<use xlink:href="#SVGID_19_"  overflow="visible"/>
	</clipPath>
	
		<linearGradient id="SVGID_21_" gradientUnits="userSpaceOnUse" x1="-43" y1="385.9795" x2="-42" y2="385.9795" gradientTransform="matrix(24.6112 0 0 -24.6112 1131.1487 9556.8818)">
		<stop  offset="0" style="stop-color:#ED6E00"/>
		<stop  offset="1" style="stop-color:#EB8900"/>
	</linearGradient>
	<rect x="71.217" y="39.202" clip-path="url(#SVGID_20_)" fill="url(#SVGID_21_)" width="26.257" height="36.496"/>
</g>
<g>
	<defs>
		<path id="SVGID_22_" d="M82.479,6.427c2.282,1.417,4.421,3.104,6.372,5.045c6.708,6.675,10.431,15.562,10.48,25.023h-0.009
			l0.015,0.013v4.409c7.837-8.876,10.188-20.95,7.061-31.745c-4.656-2.436-10.263-3.733-15.804-3.733
			C87.83,5.439,85.084,5.762,82.479,6.427"/>
	</defs>
	<clipPath id="SVGID_23_">
		<use xlink:href="#SVGID_22_"  overflow="visible"/>
	</clipPath>
	
		<linearGradient id="SVGID_24_" gradientUnits="userSpaceOnUse" x1="-43" y1="386" x2="-42" y2="386" gradientTransform="matrix(25.2577 0 0 -25.2577 1168.5629 9772.666)">
		<stop  offset="0" style="stop-color:#ED6E00"/>
		<stop  offset="1" style="stop-color:#EB8900"/>
	</linearGradient>
	<rect x="82.479" y="5.439" clip-path="url(#SVGID_23_)" fill="url(#SVGID_24_)" width="27.046" height="35.478"/>
</g>
<g>
	<path fill="#EC6900" d="M77.264,138.444l-1.556-3.212c-14.241-29.392-2.1-63.42-1.576-64.854l4.194,1.531
		c-0.116,0.321-11.109,31.204-0.031,58.172c18.342-20.87,55.862-40.008,63.74-43.892c-1.098-13.215,2.591-20.778,2.755-21.105
		l3.995,1.997l-1.998-0.999l2.001,0.991c-0.035,0.073-3.551,7.431-2.163,20.204l0.171,1.572l-1.427,0.683
		c-0.475,0.227-47.682,22.977-65.897,46.107L77.264,138.444z"/>
	<path fill="#EC6900" d="M75.209,171.285c-0.424,0-0.841-0.072-1.258-0.22c-2.633-0.929-3.108-4.356-3.229-7.239
		c-0.606-14.554,4.665-29.673,4.889-30.311l4.212,1.486c-0.052,0.148-5.208,14.963-4.638,28.637
		c0.068,1.645,0.251,2.533,0.392,2.989c1.769-0.968,5.662-5.406,9.134-9.361c3.811-4.343,8.555-9.749,14.081-15.086l5.013-4.843
		l-1.267,6.856c-0.608,3.297-1.495,12.78,1.675,17.009l-3.572,2.679c-2.809-3.746-3.281-9.583-3.137-14.076
		c-3.569,3.722-6.74,7.333-9.437,10.407C81.843,167.305,78.35,171.285,75.209,171.285"/>
	<path fill="#EC6900" d="M75.59,111.863c-5.453,0-12.378-0.735-20.877-2.197l-1.169-0.202l-0.488-1.08
		c-0.031-0.064-1.042-2.121-3.484-2.77c-2.553-0.679-5.971,0.39-9.884,3.093l-2.537-3.676c5.143-3.551,9.745-4.795,13.679-3.703
		c3,0.834,4.782,2.838,5.648,4.107c25.768,4.316,29.649,0.387,30.224-0.937c1.333-3.071-4.123-11.571-23.433-26.218
		C45.198,64.576,16.1,64.446,15.509,64.446h-0.006l-1.779,0.005l-0.404-1.732c-1.705-7.309-9.734-8.666-10.076-8.721l0.677-4.413
		c0.436,0.066,10.127,1.635,13.252,10.424c6.75,0.203,31.814,1.836,48.794,14.715c28.986,21.985,25.858,29.187,24.831,31.553
		C89.176,110.013,84.235,111.863,75.59,111.863"/>
	<path fill="#EC6900" d="M198.168,17.752c-11.552-0.398-26.973-7.562-26.973-7.562c23.739,31.647-18.008,29.459-18.008,29.459
		c19.016,3.145,19.959,22.219,19.959,22.219s3.467-14.449-4.965-19.979c0,0,19.375-7.344,10.407-25.541
		C178.588,16.348,195.662,19.806,198.168,17.752"/>
	<path fill="#EC6900" d="M191.198,141.815c-13.352-0.352-31.64,6.832-31.64,6.832c29.598-34.838-18.706-35.24-18.706-35.24
		c22.154-2.294,22.369-20.263,22.369-20.263s2.615,13.208-7.499,18.994c0,0,25.286,6.419,12.794,29.924
		C168.516,142.063,188.452,139.271,191.198,141.815"/>
</g>
</svg>
